<?xml version="1.0" encoding="UTF-8"?>
<svg xmlns="http://www.w3.org/2000/svg" xmlns:xlink="http://www.w3.org/1999/xlink" width="878pt" height="1044pt" viewBox="0 0 878 1044" version="1.1">
<defs>
<clipPath id="clip1">
  <path d="M 204 302 L 674 302 L 674 425 L 204 425 Z M 204 302 "/>
</clipPath>
<clipPath id="clip2">
  <path d="M 237.097656 573.832031 C 260.578125 603 285.789063 628.519531 312.355469 650.519531 C 352.832031 684.039063 396.386719 709.40625 441.6875 727.082031 C 490.035156 707.484375 533.246094 681.40625 571.53125 648.898438 C 610.335938 615.945313 644.132813 576.355469 673.148438 530.179688 L 673.148438 311.910156 C 529.710938 284.371094 430.28125 323.835938 346.949219 356.921875 C 295.871094 377.195313 250.753906 395.105469 204.886719 394.195313 L 204.886719 529.835938 C 213.136719 542.226563 227.957031 561.972656 237.15625 573.820313 Z M 237.097656 573.832031 "/>
</clipPath>
<clipPath id="clip3">
  <path d="M 204 372 L 674 372 L 674 509 L 204 509 Z M 204 372 "/>
</clipPath>
<clipPath id="clip4">
  <path d="M 237.097656 573.832031 C 260.578125 603 285.789063 628.519531 312.355469 650.519531 C 352.832031 684.039063 396.386719 709.40625 441.6875 727.082031 C 490.035156 707.484375 533.246094 681.40625 571.53125 648.898438 C 610.335938 615.945313 644.132813 576.355469 673.148438 530.179688 L 673.148438 311.910156 C 529.710938 284.371094 430.28125 323.835938 346.949219 356.921875 C 295.871094 377.195313 250.753906 395.105469 204.886719 394.195313 L 204.886719 529.835938 C 213.136719 542.226563 227.957031 561.972656 237.15625 573.820313 Z M 237.097656 573.832031 "/>
</clipPath>
<clipPath id="clip5">
  <path d="M 204 461 L 674 461 L 674 598 L 204 598 Z M 204 461 "/>
</clipPath>
<clipPath id="clip6">
  <path d="M 237.097656 573.832031 C 260.578125 603 285.789063 628.519531 312.355469 650.519531 C 352.832031 684.039063 396.386719 709.40625 441.6875 727.082031 C 490.035156 707.484375 533.246094 681.40625 571.53125 648.898438 C 610.335938 615.945313 644.132813 576.355469 673.148438 530.179688 L 673.148438 311.910156 C 529.710938 284.371094 430.28125 323.835938 346.949219 356.921875 C 295.871094 377.195313 250.753906 395.105469 204.886719 394.195313 L 204.886719 529.835938 C 213.136719 542.226563 227.957031 561.972656 237.15625 573.820313 Z M 237.097656 573.832031 "/>
</clipPath>
<clipPath id="clip7">
  <path d="M 396 317 L 530 317 L 530 444 L 396 444 Z M 396 317 "/>
</clipPath>
<clipPath id="clip8">
  <path d="M 237.097656 573.832031 C 260.578125 603 285.789063 628.519531 312.355469 650.519531 C 352.832031 684.039063 396.386719 709.40625 441.6875 727.082031 C 490.035156 707.484375 533.246094 681.40625 571.53125 648.898438 C 610.335938 615.945313 644.132813 576.355469 673.148438 530.179688 L 673.148438 311.910156 C 529.710938 284.371094 430.28125 323.835938 346.949219 356.921875 C 295.871094 377.195313 250.753906 395.105469 204.886719 394.195313 L 204.886719 529.835938 C 213.136719 542.226563 227.957031 561.972656 237.15625 573.820313 Z M 237.097656 573.832031 "/>
</clipPath>
<clipPath id="clip9">
  <path d="M 374 302 L 552 302 L 552 467 L 374 467 Z M 374 302 "/>
</clipPath>
<clipPath id="clip10">
  <path d="M 237.097656 573.832031 C 260.578125 603 285.789063 628.519531 312.355469 650.519531 C 352.832031 684.039063 396.386719 709.40625 441.6875 727.082031 C 490.035156 707.484375 533.246094 681.40625 571.53125 648.898438 C 610.335938 615.945313 644.132813 576.355469 673.148438 530.179688 L 673.148438 311.910156 C 529.710938 284.371094 430.28125 323.835938 346.949219 356.921875 C 295.871094 377.195313 250.753906 395.105469 204.886719 394.195313 L 204.886719 529.835938 C 213.136719 542.226563 227.957031 561.972656 237.15625 573.820313 Z M 237.097656 573.832031 "/>
</clipPath>
<clipPath id="clip11">
  <path d="M 348 391 L 549 391 L 549 552 L 348 552 Z M 348 391 "/>
</clipPath>
<clipPath id="clip12">
  <path d="M 237.097656 573.832031 C 260.578125 603 285.789063 628.519531 312.355469 650.519531 C 352.832031 684.039063 396.386719 709.40625 441.6875 727.082031 C 490.035156 707.484375 533.246094 681.40625 571.53125 648.898438 C 610.335938 615.945313 644.132813 576.355469 673.148438 530.179688 L 673.148438 311.910156 C 529.710938 284.371094 430.28125 323.835938 346.949219 356.921875 C 295.871094 377.195313 250.753906 395.105469 204.886719 394.195313 L 204.886719 529.835938 C 213.136719 542.226563 227.957031 561.972656 237.15625 573.820313 Z M 237.097656 573.832031 "/>
</clipPath>
<clipPath id="clip13">
  <path d="M 326 369 L 571 369 L 571 574 L 326 574 Z M 326 369 "/>
</clipPath>
<clipPath id="clip14">
  <path d="M 237.097656 573.832031 C 260.578125 603 285.789063 628.519531 312.355469 650.519531 C 352.832031 684.039063 396.386719 709.40625 441.6875 727.082031 C 490.035156 707.484375 533.246094 681.40625 571.53125 648.898438 C 610.335938 615.945313 644.132813 576.355469 673.148438 530.179688 L 673.148438 311.910156 C 529.710938 284.371094 430.28125 323.835938 346.949219 356.921875 C 295.871094 377.195313 250.753906 395.105469 204.886719 394.195313 L 204.886719 529.835938 C 213.136719 542.226563 227.957031 561.972656 237.15625 573.820313 Z M 237.097656 573.832031 "/>
</clipPath>
<clipPath id="clip15">
  <path d="M 317 480 L 590 480 L 590 728 L 317 728 Z M 317 480 "/>
</clipPath>
<clipPath id="clip16">
  <path d="M 237.097656 573.832031 C 260.578125 603 285.789063 628.519531 312.355469 650.519531 C 352.832031 684.039063 396.386719 709.40625 441.6875 727.082031 C 490.035156 707.484375 533.246094 681.40625 571.53125 648.898438 C 610.335938 615.945313 644.132813 576.355469 673.148438 530.179688 L 673.148438 311.910156 C 529.710938 284.371094 430.28125 323.835938 346.949219 356.921875 C 295.871094 377.195313 250.753906 395.105469 204.886719 394.195313 L 204.886719 529.835938 C 213.136719 542.226563 227.957031 561.972656 237.15625 573.820313 Z M 237.097656 573.832031 "/>
</clipPath>
<clipPath id="clip17">
  <path d="M 295 458 L 612 458 L 612 728 L 295 728 Z M 295 458 "/>
</clipPath>
<clipPath id="clip18">
  <path d="M 237.097656 573.832031 C 260.578125 603 285.789063 628.519531 312.355469 650.519531 C 352.832031 684.039063 396.386719 709.40625 441.6875 727.082031 C 490.035156 707.484375 533.246094 681.40625 571.53125 648.898438 C 610.335938 615.945313 644.132813 576.355469 673.148438 530.179688 L 673.148438 311.910156 C 529.710938 284.371094 430.28125 323.835938 346.949219 356.921875 C 295.871094 377.195313 250.753906 395.105469 204.886719 394.195313 L 204.886719 529.835938 C 213.136719 542.226563 227.957031 561.972656 237.15625 573.820313 Z M 237.097656 573.832031 "/>
</clipPath>
<clipPath id="clip19">
  <path d="M 331 208 L 547 208 L 547 400 L 331 400 Z M 331 208 "/>
</clipPath>
<clipPath id="clip20">
  <path d="M 204.886719 111.777344 L 204.886719 399.121094 C 249.273438 400.039063 293.703125 382.402344 344.011719 362.429688 C 428.050781 329.066406 528.261719 289.289063 673.148438 316.714844 L 673.148438 111.777344 Z M 204.886719 111.777344 "/>
</clipPath>
<clipPath id="clip21">
  <path d="M 329 207 L 549 207 L 549 400 L 329 400 Z M 329 207 "/>
</clipPath>
<clipPath id="clip22">
  <path d="M 204.886719 111.777344 L 204.886719 399.121094 C 249.273438 400.039063 293.703125 382.402344 344.011719 362.429688 C 428.050781 329.066406 528.261719 289.289063 673.148438 316.714844 L 673.148438 111.777344 Z M 204.886719 111.777344 "/>
</clipPath>
<clipPath id="clip23">
  <path d="M 430 111 L 448 111 L 448 400 L 430 400 Z M 430 111 "/>
</clipPath>
<clipPath id="clip24">
  <path d="M 204.886719 111.777344 L 204.886719 399.121094 C 249.273438 400.039063 293.703125 382.402344 344.011719 362.429688 C 428.050781 329.066406 528.261719 289.289063 673.148438 316.714844 L 673.148438 111.777344 Z M 204.886719 111.777344 "/>
</clipPath>
<clipPath id="clip25">
  <path d="M 204 111 L 559 111 L 559 400 L 204 400 Z M 204 111 "/>
</clipPath>
<clipPath id="clip26">
  <path d="M 204.886719 111.777344 L 204.886719 399.121094 C 249.273438 400.039063 293.703125 382.402344 344.011719 362.429688 C 428.050781 329.066406 528.261719 289.289063 673.148438 316.714844 L 673.148438 111.777344 Z M 204.886719 111.777344 "/>
</clipPath>
<clipPath id="clip27">
  <path d="M 204 111 L 561 111 L 561 400 L 204 400 Z M 204 111 "/>
</clipPath>
<clipPath id="clip28">
  <path d="M 204.886719 111.777344 L 204.886719 399.121094 C 249.273438 400.039063 293.703125 382.402344 344.011719 362.429688 C 428.050781 329.066406 528.261719 289.289063 673.148438 316.714844 L 673.148438 111.777344 Z M 204.886719 111.777344 "/>
</clipPath>
<clipPath id="clip29">
  <path d="M 324 111 L 674 111 L 674 400 L 324 400 Z M 324 111 "/>
</clipPath>
<clipPath id="clip30">
  <path d="M 204.886719 111.777344 L 204.886719 399.121094 C 249.273438 400.039063 293.703125 382.402344 344.011719 362.429688 C 428.050781 329.066406 528.261719 289.289063 673.148438 316.714844 L 673.148438 111.777344 Z M 204.886719 111.777344 "/>
</clipPath>
<clipPath id="clip31">
  <path d="M 323 111 L 674 111 L 674 400 L 323 400 Z M 323 111 "/>
</clipPath>
<clipPath id="clip32">
  <path d="M 204.886719 111.777344 L 204.886719 399.121094 C 249.273438 400.039063 293.703125 382.402344 344.011719 362.429688 C 428.050781 329.066406 528.261719 289.289063 673.148438 316.714844 L 673.148438 111.777344 Z M 204.886719 111.777344 "/>
</clipPath>
<clipPath id="clip33">
  <path d="M 204 245 L 639 245 L 639 373 L 204 373 Z M 204 245 "/>
</clipPath>
<clipPath id="clip34">
  <path d="M 204.886719 111.777344 L 204.886719 399.121094 C 249.273438 400.039063 293.703125 382.402344 344.011719 362.429688 C 428.050781 329.066406 528.261719 289.289063 673.148438 316.714844 L 673.148438 111.777344 Z M 204.886719 111.777344 "/>
</clipPath>
<clipPath id="clip35">
  <path d="M 204 243 L 641 243 L 641 375 L 204 375 Z M 204 243 "/>
</clipPath>
<clipPath id="clip36">
  <path d="M 204.886719 111.777344 L 204.886719 399.121094 C 249.273438 400.039063 293.703125 382.402344 344.011719 362.429688 C 428.050781 329.066406 528.261719 289.289063 673.148438 316.714844 L 673.148438 111.777344 Z M 204.886719 111.777344 "/>
</clipPath>
<clipPath id="clip37">
  <path d="M 204 243 L 674 243 L 674 385 L 204 385 Z M 204 243 "/>
</clipPath>
<clipPath id="clip38">
  <path d="M 204.886719 111.777344 L 204.886719 399.121094 C 249.273438 400.039063 293.703125 382.402344 344.011719 362.429688 C 428.050781 329.066406 528.261719 289.289063 673.148438 316.714844 L 673.148438 111.777344 Z M 204.886719 111.777344 "/>
</clipPath>
<clipPath id="clip39">
  <path d="M 204 241 L 674 241 L 674 387 L 204 387 Z M 204 241 "/>
</clipPath>
<clipPath id="clip40">
  <path d="M 204.886719 111.777344 L 204.886719 399.121094 C 249.273438 400.039063 293.703125 382.402344 344.011719 362.429688 C 428.050781 329.066406 528.261719 289.289063 673.148438 316.714844 L 673.148438 111.777344 Z M 204.886719 111.777344 "/>
</clipPath>
<clipPath id="clip41">
  <path d="M 376 134 L 498 134 L 498 400 L 376 400 Z M 376 134 "/>
</clipPath>
<clipPath id="clip42">
  <path d="M 204.886719 111.777344 L 204.886719 399.121094 C 249.273438 400.039063 293.703125 382.402344 344.011719 362.429688 C 428.050781 329.066406 528.261719 289.289063 673.148438 316.714844 L 673.148438 111.777344 Z M 204.886719 111.777344 "/>
</clipPath>
<clipPath id="clip43">
  <path d="M 312 166 L 562 166 L 562 400 L 312 400 Z M 312 166 "/>
</clipPath>
<clipPath id="clip44">
  <path d="M 204.886719 111.777344 L 204.886719 399.121094 C 249.273438 400.039063 293.703125 382.402344 344.011719 362.429688 C 428.050781 329.066406 528.261719 289.289063 673.148438 316.714844 L 673.148438 111.777344 Z M 204.886719 111.777344 "/>
</clipPath>
<clipPath id="clip45">
  <path d="M 271 222 L 603 222 L 603 387 L 271 387 Z M 271 222 "/>
</clipPath>
<clipPath id="clip46">
  <path d="M 204.886719 111.777344 L 204.886719 399.121094 C 249.273438 400.039063 293.703125 382.402344 344.011719 362.429688 C 428.050781 329.066406 528.261719 289.289063 673.148438 316.714844 L 673.148438 111.777344 Z M 204.886719 111.777344 "/>
</clipPath>
<clipPath id="clip47">
  <path d="M 258 284 L 624 284 L 624 347 L 258 347 Z M 258 284 "/>
</clipPath>
<clipPath id="clip48">
  <path d="M 204.886719 111.777344 L 204.886719 399.121094 C 249.273438 400.039063 293.703125 382.402344 344.011719 362.429688 C 428.050781 329.066406 528.261719 289.289063 673.148438 316.714844 L 673.148438 111.777344 Z M 204.886719 111.777344 "/>
</clipPath>
<clipPath id="clip49">
  <path d="M 271 220 L 612 220 L 612 400 L 271 400 Z M 271 220 "/>
</clipPath>
<clipPath id="clip50">
  <path d="M 204.886719 111.777344 L 204.886719 399.121094 C 249.273438 400.039063 293.703125 382.402344 344.011719 362.429688 C 428.050781 329.066406 528.261719 289.289063 673.148438 316.714844 L 673.148438 111.777344 Z M 204.886719 111.777344 "/>
</clipPath>
<clipPath id="clip51">
  <path d="M 371 135 L 503 135 L 503 400 L 371 400 Z M 371 135 "/>
</clipPath>
<clipPath id="clip52">
  <path d="M 204.886719 111.777344 L 204.886719 399.121094 C 249.273438 400.039063 293.703125 382.402344 344.011719 362.429688 C 428.050781 329.066406 528.261719 289.289063 673.148438 316.714844 L 673.148438 111.777344 Z M 204.886719 111.777344 "/>
</clipPath>
<clipPath id="clip53">
  <path d="M 311 166 L 563 166 L 563 400 L 311 400 Z M 311 166 "/>
</clipPath>
<clipPath id="clip54">
  <path d="M 204.886719 111.777344 L 204.886719 399.121094 C 249.273438 400.039063 293.703125 382.402344 344.011719 362.429688 C 428.050781 329.066406 528.261719 289.289063 673.148438 316.714844 L 673.148438 111.777344 Z M 204.886719 111.777344 "/>
</clipPath>
<clipPath id="clip55">
  <path d="M 291 111 L 531 111 L 531 400 L 291 400 Z M 291 111 "/>
</clipPath>
<clipPath id="clip56">
  <path d="M 204.886719 111.777344 L 204.886719 399.121094 C 249.273438 400.039063 293.703125 382.402344 344.011719 362.429688 C 428.050781 329.066406 528.261719 289.289063 673.148438 316.714844 L 673.148438 111.777344 Z M 204.886719 111.777344 "/>
</clipPath>
<clipPath id="clip57">
  <path d="M 289 111 L 533 111 L 533 400 L 289 400 Z M 289 111 "/>
</clipPath>
<clipPath id="clip58">
  <path d="M 204.886719 111.777344 L 204.886719 399.121094 C 249.273438 400.039063 293.703125 382.402344 344.011719 362.429688 C 428.050781 329.066406 528.261719 289.289063 673.148438 316.714844 L 673.148438 111.777344 Z M 204.886719 111.777344 "/>
</clipPath>
<clipPath id="clip59">
  <path d="M 348 111 L 588 111 L 588 400 L 348 400 Z M 348 111 "/>
</clipPath>
<clipPath id="clip60">
  <path d="M 204.886719 111.777344 L 204.886719 399.121094 C 249.273438 400.039063 293.703125 382.402344 344.011719 362.429688 C 428.050781 329.066406 528.261719 289.289063 673.148438 316.714844 L 673.148438 111.777344 Z M 204.886719 111.777344 "/>
</clipPath>
<clipPath id="clip61">
  <path d="M 346 111 L 590 111 L 590 400 L 346 400 Z M 346 111 "/>
</clipPath>
<clipPath id="clip62">
  <path d="M 204.886719 111.777344 L 204.886719 399.121094 C 249.273438 400.039063 293.703125 382.402344 344.011719 362.429688 C 428.050781 329.066406 528.261719 289.289063 673.148438 316.714844 L 673.148438 111.777344 Z M 204.886719 111.777344 "/>
</clipPath>
</defs>
<g id="surface1">
<path style=" stroke:none;fill-rule:evenodd;fill:rgb(0%,21.972656%,56.834412%);fill-opacity:1;" d="M 67.761719 717.730469 C 106.746094 736.757813 146.238281 753.246094 187.320313 761.777344 L 185.746094 728.742188 C 359.550781 786.933594 528.183594 787.222656 691.5 727.953125 L 693.074219 762.5625 C 737.792969 751.886719 779.703125 736.53125 818.132813 715.371094 L 789.816406 764.921875 L 836.226563 776.722656 C 779.132813 801.230469 719.75 821.164063 658.464844 837.285156 L 697.789063 794.023438 C 531.011719 852.152344 363.273438 856.503906 194.398438 797.171875 L 226.648438 840.433594 C 165.035156 825.644531 103.421875 804.878906 41.808594 777.507813 L 93.71875 764.921875 C 93.71875 764.921875 66.191406 716.15625 67.761719 717.730469 "/>
<path style=" stroke:none;fill-rule:nonzero;fill:rgb(100%,100%,100%);fill-opacity:1;" d="M 225.910156 767.40625 C 226.792969 764.457031 226.515625 762.671875 225.070313 762.058594 C 222.917969 761.136719 221.308594 762.308594 220.25 765.570313 L 217.460938 774.15625 C 216.847656 776.042969 216.648438 777.507813 216.863281 778.546875 C 217.078125 779.585938 217.683594 780.265625 218.683594 780.589844 C 219.769531 780.941406 220.640625 780.734375 221.296875 779.96875 C 221.949219 779.199219 222.609375 777.792969 223.269531 775.75 L 227.964844 777.277344 C 227.351563 778.941406 226.738281 780.347656 226.132813 781.5 C 225.523438 782.652344 224.53125 783.617188 223.148438 784.394531 C 221.769531 785.175781 220 785.214844 217.847656 784.515625 C 215.800781 783.871094 214.289063 783.015625 213.3125 781.9375 C 212.339844 780.859375 211.84375 779.472656 211.832031 777.773438 C 211.820313 776.078125 212.230469 773.941406 213.066406 771.367188 L 214.441406 767.140625 C 215.371094 764.277344 216.339844 762.113281 217.339844 760.648438 C 218.34375 759.183594 219.519531 758.261719 220.871094 757.878906 C 222.222656 757.496094 223.894531 757.601563 225.882813 758.199219 C 228.632813 759.019531 230.316406 760.339844 230.925781 762.15625 C 231.539063 763.976563 231.410156 766.226563 230.535156 768.910156 Z M 240.839844 769.425781 C 242.691406 769.992188 243.976563 770.757813 244.695313 771.71875 C 245.410156 772.683594 245.71875 773.875 245.613281 775.296875 C 245.507813 776.714844 245.089844 778.617188 244.359375 781.007813 L 243.359375 784.285156 C 242.675781 786.519531 241.691406 788.125 240.402344 789.109375 C 239.113281 790.09375 237.285156 790.226563 234.921875 789.503906 C 232.910156 788.886719 231.523438 788.128906 230.75 787.222656 C 229.976563 786.3125 229.644531 785.109375 229.75 783.601563 C 229.855469 782.097656 230.3125 780.027344 231.117188 777.394531 C 231.882813 774.898438 232.636719 772.992188 233.378906 771.683594 C 234.121094 770.371094 235.074219 769.523438 236.242188 769.136719 C 237.410156 768.75 238.941406 768.84375 240.839844 769.425781 Z M 240.78125 777.277344 C 241.238281 775.78125 241.414063 774.726563 241.308594 774.105469 C 241.207031 773.488281 240.707031 773.046875 239.816406 772.773438 C 238.921875 772.5 238.234375 772.601563 237.746094 773.074219 C 237.261719 773.546875 236.820313 774.429688 236.425781 775.726563 L 234.324219 782.585938 C 233.785156 784.347656 234.222656 785.480469 235.628906 785.984375 C 236.476563 786.246094 237.132813 786.21875 237.59375 785.910156 C 238.054688 785.597656 238.4375 784.941406 238.742188 783.9375 Z M 254.710938 776.015625 L 254.777344 776.035156 C 255.347656 775.324219 256.082031 774.878906 256.980469 774.703125 C 257.882813 774.523438 258.78125 774.5625 259.679688 774.820313 C 260.6875 775.109375 261.53125 775.589844 262.214844 776.257813 C 262.898438 776.925781 263.175781 777.644531 263.054688 778.410156 C 263.644531 777.703125 264.40625 777.269531 265.34375 777.097656 C 266.277344 776.929688 267.214844 776.980469 268.15625 777.25 C 269.414063 777.609375 270.410156 778.261719 271.148438 779.199219 C 271.886719 780.140625 272.078125 781.226563 271.722656 782.460938 L 267.257813 798.039063 L 262.851563 796.773438 L 266.660156 783.484375 C 267.226563 781.511719 266.777344 780.363281 265.316406 780.039063 C 263.886719 779.703125 262.878906 780.554688 262.289063 782.597656 L 258.578125 795.550781 L 254.171875 794.285156 L 258.046875 780.761719 C 258.570313 778.941406 258.078125 777.855469 256.578125 777.5 C 255.789063 777.296875 255.160156 777.414063 254.695313 777.851563 C 254.230469 778.289063 253.851563 779.011719 253.5625 780.019531 L 249.828125 793.039063 L 245.488281 791.796875 L 250.929688 772.820313 L 255.269531 774.066406 Z M 280.398438 782.4375 L 280.464844 782.453125 C 280.996094 781.714844 281.707031 781.230469 282.597656 781.007813 C 283.488281 780.78125 284.386719 780.773438 285.296875 780.984375 C 286.320313 781.21875 287.1875 781.652344 287.902344 782.285156 C 288.621094 782.917969 288.9375 783.621094 288.855469 784.390625 C 289.40625 783.65625 290.144531 783.179688 291.070313 782.964844 C 291.996094 782.746094 292.933594 782.746094 293.890625 782.96875 C 295.164063 783.261719 296.191406 783.859375 296.980469 784.757813 C 297.765625 785.65625 298.011719 786.734375 297.726563 787.984375 L 294.078125 803.773438 L 289.613281 802.742188 L 292.722656 789.269531 C 293.183594 787.269531 292.675781 786.148438 291.199219 785.902344 C 289.753906 785.640625 288.789063 786.542969 288.3125 788.613281 L 285.28125 801.742188 L 280.8125 800.710938 L 283.976563 787 C 284.402344 785.160156 283.859375 784.101563 282.34375 783.820313 C 281.539063 783.660156 280.917969 783.808594 280.476563 784.269531 C 280.035156 784.730469 279.695313 785.472656 279.460938 786.496094 L 276.414063 799.695313 L 272.015625 798.679688 L 276.453125 779.445313 L 280.855469 780.460938 Z M 304.265625 778.554688 L 308.679688 779.492188 L 307.816406 783.566406 L 303.398438 782.628906 Z M 302.894531 784.988281 L 307.3125 785.929688 L 303.210938 805.234375 L 298.792969 804.296875 Z M 318.027344 788.164063 L 317.40625 791.359375 L 315.519531 790.992188 L 313.300781 802.398438 C 313.175781 803.039063 313.203125 803.445313 313.386719 803.609375 C 313.566406 803.777344 314.082031 803.941406 314.929688 804.105469 L 314.246094 807.609375 C 314.066406 807.574219 313.707031 807.527344 313.171875 807.472656 C 312.632813 807.414063 312.183594 807.351563 311.816406 807.28125 C 309.160156 806.765625 308.046875 805.40625 308.472656 803.207031 L 311.015625 790.117188 L 309.230469 789.769531 L 309.851563 786.574219 L 311.636719 786.921875 L 312.6875 781.527344 L 317.1875 782.402344 L 316.140625 787.796875 Z M 324.808594 791.183594 L 324.878906 791.195313 C 325.355469 790.421875 326.03125 789.890625 326.902344 789.601563 C 327.777344 789.316406 328.671875 789.246094 329.59375 789.390625 C 330.632813 789.554688 331.53125 789.929688 332.289063 790.507813 C 333.046875 791.089844 333.410156 791.769531 333.382813 792.542969 C 333.882813 791.769531 334.585938 791.246094 335.492188 790.964844 C 336.402344 790.683594 337.339844 790.617188 338.304688 790.769531 C 339.597656 790.976563 340.664063 791.5 341.511719 792.34375 C 342.359375 793.183594 342.683594 794.238281 342.480469 795.507813 L 339.945313 811.511719 L 335.417969 810.796875 L 337.582031 797.140625 C 337.902344 795.113281 337.316406 794.027344 335.828125 793.886719 C 334.367188 793.726563 333.46875 794.695313 333.136719 796.789063 L 331.027344 810.101563 L 326.5 809.382813 L 328.699219 795.484375 C 328.996094 793.621094 328.378906 792.601563 326.847656 792.429688 C 326.035156 792.324219 325.425781 792.515625 325.019531 793.007813 C 324.609375 793.496094 324.324219 794.261719 324.160156 795.300781 L 322.039063 808.675781 L 317.578125 807.972656 L 320.667969 788.472656 L 325.128906 789.179688 Z M 345.855469 798.371094 C 346.488281 793.867188 349.105469 791.9375 353.703125 792.585938 C 355.664063 792.882813 357.066406 793.457031 357.914063 794.308594 C 358.761719 795.15625 359.242188 796.171875 359.359375 797.355469 C 359.476563 798.539063 359.398438 800.101563 359.125 802.039063 L 358.746094 804.742188 L 349.769531 803.480469 L 349.347656 806.464844 C 349.078125 808.382813 349.65625 809.476563 351.078125 809.746094 C 351.222656 809.71875 351.414063 809.722656 351.644531 809.753906 C 352.886719 809.789063 353.625 808.65625 353.851563 806.355469 L 358.359375 806.988281 C 358.164063 809.199219 357.484375 810.863281 356.3125 811.984375 C 355.144531 813.105469 353.515625 813.527344 351.433594 813.261719 C 350.203125 813.132813 349.054688 812.84375 347.988281 812.386719 C 346.921875 811.929688 346.078125 811.039063 345.464844 809.71875 C 344.847656 808.394531 344.707031 806.554688 345.039063 804.195313 Z M 350.25 800.050781 L 354.722656 800.679688 L 355 798.703125 C 355.21875 797.132813 354.578125 796.242188 353.078125 796.03125 C 351.597656 795.824219 350.75 796.503906 350.527344 798.074219 Z M 368.355469 794.976563 L 368.121094 797.203125 C 368.46875 796.371094 369.070313 795.761719 369.933594 795.371094 C 370.796875 794.980469 371.679688 794.832031 372.585938 794.929688 C 373.835938 795.058594 374.851563 795.546875 375.632813 796.390625 C 376.410156 797.234375 376.726563 798.355469 376.582031 799.746094 L 374.925781 815.515625 L 370.46875 815.046875 L 371.878906 801.644531 C 371.984375 800.648438 371.921875 799.902344 371.691406 799.410156 C 371.460938 798.914063 370.988281 798.621094 370.269531 798.519531 C 369.652344 798.386719 369.09375 798.5625 368.597656 799.050781 C 368.097656 799.535156 367.796875 800.300781 367.6875 801.347656 L 366.292969 814.609375 L 361.765625 814.132813 L 363.828125 794.5 Z M 387.628906 796.601563 L 387.289063 799.835938 L 385.375 799.636719 L 384.160156 811.191406 C 384.089844 811.839844 384.15625 812.242188 384.351563 812.390625 C 384.546875 812.539063 385.074219 812.660156 385.933594 812.75 L 385.558594 816.300781 C 385.371094 816.28125 385.011719 816.265625 384.472656 816.257813 C 383.933594 816.246094 383.480469 816.222656 383.105469 816.183594 C 380.414063 815.902344 379.1875 814.644531 379.421875 812.417969 L 380.8125 799.15625 L 379.003906 798.964844 L 379.34375 795.730469 L 381.15625 795.917969 L 381.730469 790.453125 L 386.289063 790.933594 L 385.714844 796.398438 Z M 390.375 811.964844 L 394.914063 812.28125 L 394.589844 816.925781 C 394.492188 818.320313 394.039063 819.449219 393.230469 820.304688 C 392.421875 821.160156 391.242188 821.613281 389.695313 821.671875 L 389.804688 820.101563 C 390.363281 820.140625 390.9375 819.902344 391.523438 819.394531 C 392.105469 818.886719 392.429688 818.015625 392.492188 816.777344 L 390.050781 816.609375 Z M 418.046875 790.835938 C 420.613281 790.921875 422.515625 791.421875 423.757813 792.328125 C 424.996094 793.234375 425.800781 794.511719 426.164063 796.160156 C 426.523438 797.808594 426.714844 800.078125 426.730469 802.972656 L 426.625 805.980469 C 426.453125 810.855469 425.863281 814.058594 424.855469 815.585938 L 427.421875 818.265625 L 424.820313 820.558594 L 422.222656 817.734375 C 421.199219 818.261719 419.675781 818.488281 417.644531 818.414063 C 414.613281 818.3125 412.492188 817.570313 411.277344 816.199219 C 410.449219 815.257813 409.90625 813.933594 409.648438 812.21875 C 409.394531 810.503906 409.285156 808.457031 409.320313 806.078125 C 409.390625 805.402344 409.445313 804.472656 409.488281 803.28125 C 409.640625 800.90625 409.769531 799.222656 409.875 798.234375 C 409.980469 797.246094 410.292969 796.121094 410.816406 794.855469 C 411.339844 793.589844 412.1875 792.585938 413.355469 791.84375 C 414.523438 791.101563 416.089844 790.765625 418.046875 790.835938 Z M 421.695313 799.714844 C 421.753906 798.085938 421.464844 796.859375 420.824219 796.042969 C 420.1875 795.226563 419.308594 794.824219 418.1875 794.832031 C 417.183594 794.84375 416.359375 795.257813 415.710938 796.074219 C 415.0625 796.894531 414.714844 798.046875 414.664063 799.539063 L 414.316406 809.40625 C 414.203125 812.671875 415.335938 814.367188 417.714844 814.496094 C 418.015625 814.460938 418.449219 814.40625 419.015625 814.332031 L 417.996094 813.421875 L 420.769531 811.207031 L 421.070313 811.601563 C 421.230469 811.070313 421.328125 810.234375 421.367188 809.089844 L 421.441406 807.027344 Z M 438.433594 798.1875 L 443.015625 798.109375 L 443.363281 817.84375 L 438.988281 817.921875 L 438.933594 814.773438 C 438.4375 817.253906 436.980469 818.515625 434.554688 818.558594 C 433.644531 818.574219 432.8125 818.402344 432.058594 818.042969 C 430.835938 817.433594 430.199219 815.777344 430.152344 813.070313 L 429.894531 798.339844 L 434.480469 798.257813 L 434.722656 812.324219 C 434.757813 814.191406 435.425781 815.066406 436.730469 814.949219 C 438.058594 814.925781 438.703125 813.773438 438.664063 811.484375 Z M 447.007813 804.195313 C 446.859375 801.890625 447.320313 800.234375 448.394531 799.226563 C 449.46875 798.222656 451.160156 797.65625 453.464844 797.527344 C 455.820313 797.445313 457.542969 797.816406 458.636719 798.644531 C 459.726563 799.46875 460.304688 800.789063 460.367188 802.609375 L 460.78125 814.503906 C 460.824219 815.738281 460.988281 816.761719 461.273438 817.566406 L 456.902344 817.71875 C 456.777344 817.445313 456.652344 816.921875 456.53125 816.15625 C 456.574219 815.96875 456.589844 815.757813 456.578125 815.523438 C 455.570313 817.359375 454.191406 818.304688 452.441406 818.367188 C 451.789063 818.390625 451.050781 818.296875 450.226563 818.09375 C 448.292969 817.53125 447.277344 815.871094 447.179688 813.121094 C 447.054688 811.515625 447.273438 810.269531 447.839844 809.386719 C 448.402344 808.503906 449.234375 807.703125 450.328125 806.988281 C 450.921875 806.59375 451.800781 806.136719 452.960938 805.617188 C 454.121094 805.097656 454.871094 804.679688 455.210938 804.367188 C 455.664063 803.953125 455.878906 803.421875 455.855469 802.765625 C 455.8125 801.554688 455.03125 800.976563 453.519531 801.027344 C 452.585938 801.105469 452.03125 801.300781 451.855469 801.609375 C 451.453125 802.140625 451.273438 802.949219 451.3125 804.046875 Z M 455.945313 807.351563 C 455.28125 807.796875 454.597656 808.269531 453.894531 808.773438 C 453.1875 809.273438 452.628906 809.8125 452.214844 810.390625 C 451.804688 810.964844 451.578125 811.648438 451.535156 812.445313 C 451.726563 813.929688 452.503906 814.746094 453.859375 814.882813 C 454.371094 814.796875 454.695313 814.714844 454.832031 814.640625 C 455.199219 814.394531 455.464844 814.152344 455.632813 813.910156 C 455.796875 813.671875 455.921875 813.179688 456 812.429688 C 456.078125 811.679688 456.085938 810.722656 456.023438 809.554688 Z M 464.457031 791.410156 L 469.035156 791.171875 L 470.410156 817.382813 L 465.828125 817.625 Z M 473.6875 790.972656 L 478.191406 790.65625 L 478.480469 794.8125 L 473.976563 795.128906 Z M 474.144531 797.535156 L 478.648438 797.222656 L 480.027344 816.914063 L 475.523438 817.230469 Z M 490.054688 796.402344 L 490.28125 799.648438 L 488.363281 799.785156 L 489.171875 811.375 C 489.21875 812.027344 489.351563 812.410156 489.570313 812.523438 C 489.785156 812.636719 490.328125 812.664063 491.1875 812.601563 L 491.4375 816.164063 C 491.25 816.175781 490.890625 816.226563 490.359375 816.308594 C 489.828125 816.394531 489.375 816.449219 489.003906 816.476563 C 486.304688 816.664063 484.875 815.640625 484.71875 813.40625 L 483.789063 800.105469 L 481.972656 800.230469 L 481.746094 796.984375 L 483.5625 796.855469 L 483.179688 791.375 L 487.753906 791.054688 L 488.136719 796.535156 Z M 490.816406 796.324219 L 495.59375 795.910156 L 498.65625 806.8125 L 499.613281 811.332031 L 499.808594 806.710938 L 500.964844 795.4375 L 505.601563 795.03125 L 502.242188 817.285156 C 502.027344 819.085938 501.578125 820.339844 500.902344 821.054688 C 500.230469 821.769531 499.183594 822.191406 497.765625 822.3125 C 496.859375 822.394531 496.121094 822.433594 495.5625 822.4375 L 495.253906 818.914063 L 496.160156 818.835938 L 496.683594 818.789063 C 497.195313 818.746094 497.53125 818.664063 497.699219 818.542969 C 497.863281 818.425781 497.929688 818.1875 497.898438 817.839844 C 497.882813 817.632813 497.722656 817.011719 497.421875 815.984375 Z M 508.886719 809.902344 L 513.402344 809.347656 L 513.96875 813.96875 C 514.140625 815.359375 513.910156 816.550781 513.277344 817.546875 C 512.648438 818.539063 511.578125 819.210938 510.070313 819.5625 L 509.878906 817.996094 C 510.433594 817.929688 510.953125 817.589844 511.429688 816.980469 C 511.90625 816.367188 512.058594 815.449219 511.882813 814.226563 L 509.453125 814.523438 Z M 525.109375 786.445313 L 534.46875 785.128906 C 537.148438 784.753906 539.222656 785.492188 540.683594 787.347656 C 542.144531 789.203125 543.109375 792.550781 543.578125 797.386719 C 543.777344 799.480469 543.894531 801.195313 543.929688 802.53125 C 543.964844 803.871094 543.855469 805.164063 543.59375 806.414063 C 543.332031 807.664063 542.773438 808.714844 541.914063 809.566406 C 541.058594 810.417969 539.820313 810.957031 538.203125 811.183594 L 528.773438 812.507813 Z M 530.539063 789.605469 L 533.132813 808.042969 L 535.695313 807.683594 C 536.988281 807.503906 537.886719 807.003906 538.382813 806.191406 C 538.882813 805.378906 539.117188 804.320313 539.085938 803.019531 C 539.058594 801.714844 538.851563 799.886719 538.476563 797.539063 C 537.972656 794.285156 537.410156 792.027344 536.796875 790.757813 C 536.183594 789.488281 535.230469 788.945313 533.9375 789.128906 Z M 546.800781 796.46875 C 546.011719 791.984375 547.902344 789.34375 552.476563 788.535156 C 554.433594 788.214844 555.945313 788.328125 557.011719 788.871094 C 558.078125 789.421875 558.851563 790.238281 559.328125 791.324219 C 559.804688 792.414063 560.214844 793.925781 560.554688 795.855469 L 561.027344 798.542969 L 552.101563 800.117188 L 552.621094 803.082031 C 552.960938 804.988281 553.847656 805.851563 555.28125 805.667969 C 555.410156 805.597656 555.59375 805.542969 555.820313 805.503906 C 557.015625 805.148438 557.367188 803.84375 556.871094 801.585938 L 561.355469 800.796875 C 561.855469 802.960938 561.71875 804.753906 560.953125 806.179688 C 560.183594 807.605469 558.769531 808.511719 556.703125 808.902344 C 555.496094 809.160156 554.3125 809.238281 553.15625 809.136719 C 552.003906 809.03125 550.925781 808.445313 549.933594 807.375 C 548.9375 806.308594 548.234375 804.601563 547.820313 802.257813 Z M 551.496094 796.703125 L 555.945313 795.921875 L 555.597656 793.957031 C 555.324219 792.394531 554.4375 791.742188 552.945313 792.007813 C 551.472656 792.265625 550.878906 793.175781 551.152344 794.738281 Z M 572.398438 792.132813 C 572.199219 791.101563 571.847656 790.3125 571.351563 789.769531 C 570.851563 789.222656 570.261719 789.019531 569.570313 789.152344 C 568.769531 789.308594 568.292969 789.699219 568.140625 790.320313 C 567.988281 790.945313 568.023438 791.816406 568.242188 792.941406 L 569.523438 799.535156 C 569.742188 800.660156 570.101563 801.503906 570.605469 802.070313 C 571.105469 802.640625 571.644531 802.867188 572.21875 802.757813 C 573.660156 802.476563 574.148438 801.132813 573.679688 798.730469 Z M 571.714844 787.878906 L 571.394531 786.980469 L 569.921875 779.386719 L 574.351563 778.523438 L 579.375 804.359375 L 574.941406 805.222656 L 574.515625 803.023438 C 574.382813 803.929688 573.996094 804.699219 573.359375 805.335938 C 572.722656 805.96875 571.945313 806.375 571.03125 806.554688 C 570.546875 806.648438 570.054688 806.671875 569.546875 806.628906 C 567.28125 806.355469 565.773438 804.28125 565.023438 800.410156 L 563.726563 793.746094 C 562.941406 789.714844 563.734375 787.246094 566.101563 786.332031 C 566.300781 786.269531 566.480469 786.21875 566.640625 786.175781 C 566.800781 786.132813 566.992188 786.089844 567.222656 786.042969 C 569.054688 785.6875 570.550781 786.300781 571.714844 787.878906 Z M 579.484375 777.429688 L 583.914063 776.566406 L 584.710938 780.65625 L 580.277344 781.515625 Z M 580.738281 783.886719 L 585.171875 783.027344 L 588.9375 802.402344 L 584.507813 803.265625 Z M 602.183594 786.246094 L 597.714844 787.277344 L 597.1875 784.992188 C 597.082031 784.535156 596.84375 784.207031 596.472656 784.007813 C 596.105469 783.804688 595.703125 783.753906 595.269531 783.851563 C 594.203125 784.097656 593.851563 785.019531 594.21875 786.609375 L 596.140625 794.929688 C 596.5625 796.75 597.28125 797.539063 598.304688 797.304688 C 599.394531 797.054688 599.730469 796.019531 599.3125 794.199219 L 598.878906 792.324219 L 603.347656 791.292969 L 603.78125 793.167969 C 604.273438 795.304688 604.125 796.992188 603.332031 798.226563 C 602.539063 799.464844 601.132813 800.316406 599.109375 800.785156 C 597.199219 801.226563 595.59375 801.019531 594.296875 800.171875 C 593 799.320313 592.125 797.917969 591.671875 795.960938 L 590.074219 789.039063 C 589.371094 785.992188 589.488281 783.910156 590.429688 782.796875 C 591.371094 781.683594 592.699219 780.902344 594.414063 780.457031 C 595.371094 780.238281 596.3125 780.175781 597.246094 780.273438 C 598.179688 780.367188 598.964844 780.664063 599.605469 781.164063 C 600.203125 781.574219 600.679688 782.070313 601.027344 782.648438 C 601.378906 783.226563 601.761719 784.425781 602.183594 786.246094 Z M 604.808594 784.636719 C 604.183594 782.414063 604.289063 780.695313 605.128906 779.488281 C 605.972656 778.28125 607.507813 777.375 609.738281 776.773438 C 612.023438 776.203125 613.785156 776.207031 615.027344 776.789063 C 616.265625 777.367188 617.105469 778.542969 617.546875 780.308594 L 620.421875 791.855469 C 620.722656 793.054688 621.09375 794.019531 621.542969 794.75 L 617.296875 795.808594 C 617.117188 795.566406 616.886719 795.082031 616.609375 794.355469 C 616.609375 794.164063 616.582031 793.953125 616.527344 793.726563 C 615.921875 795.730469 614.765625 796.945313 613.070313 797.367188 C 612.433594 797.527344 611.691406 797.589844 610.84375 797.5625 C 608.835938 797.414063 607.496094 796.003906 606.832031 793.332031 C 606.375 791.785156 606.328125 790.523438 606.699219 789.539063 C 607.066406 788.558594 607.714844 787.605469 608.636719 786.675781 C 609.132813 786.167969 609.898438 785.539063 610.925781 784.789063 C 611.953125 784.039063 612.597656 783.476563 612.867188 783.097656 C 613.222656 782.601563 613.320313 782.035156 613.164063 781.398438 C 612.871094 780.222656 611.988281 779.816406 610.515625 780.183594 C 609.621094 780.457031 609.121094 780.761719 609.011719 781.101563 C 608.730469 781.699219 608.722656 782.53125 608.984375 783.597656 Z M 614.203125 785.867188 C 613.648438 786.4375 613.078125 787.042969 612.492188 787.683594 C 611.90625 788.320313 611.472656 788.964844 611.1875 789.613281 C 610.90625 790.261719 610.828125 790.976563 610.949219 791.765625 C 611.445313 793.179688 612.375 793.8125 613.734375 793.667969 C 614.214844 793.476563 614.515625 793.328125 614.632813 793.226563 C 614.9375 792.910156 615.148438 792.617188 615.261719 792.347656 C 615.375 792.078125 615.394531 791.570313 615.3125 790.820313 C 615.234375 790.070313 615.042969 789.132813 614.738281 788.007813 Z M 627.023438 773.308594 L 627.867188 776.453125 L 626.007813 776.953125 L 629.015625 788.175781 C 629.183594 788.808594 629.386719 789.15625 629.621094 789.226563 C 629.859375 789.296875 630.394531 789.21875 631.226563 788.996094 L 632.152344 792.445313 C 631.972656 792.492188 631.628906 792.609375 631.121094 792.792969 C 630.613281 792.976563 630.183594 793.117188 629.820313 793.214844 C 627.207031 793.914063 625.609375 793.183594 625.03125 791.019531 L 621.578125 778.136719 L 619.820313 778.609375 L 618.976563 775.464844 L 620.734375 774.996094 L 619.3125 769.6875 L 623.742188 768.5 L 625.164063 773.808594 Z M 628.195313 766.195313 L 632.535156 764.949219 L 633.683594 768.953125 L 629.34375 770.199219 Z M 630.007813 772.519531 L 634.347656 771.277344 L 639.789063 790.25 L 635.449219 791.496094 Z M 644.804688 767.769531 C 646.65625 767.203125 648.148438 767.117188 649.28125 767.515625 C 650.417969 767.910156 651.339844 768.730469 652.046875 769.964844 C 652.75 771.199219 653.46875 773.011719 654.199219 775.398438 L 655.203125 778.679688 C 655.886719 780.910156 655.96875 782.796875 655.449219 784.332031 C 654.929688 785.867188 653.488281 786.996094 651.125 787.722656 C 649.113281 788.335938 647.539063 788.484375 646.390625 788.160156 C 645.242188 787.84375 644.292969 787.027344 643.539063 785.722656 C 642.785156 784.414063 642.007813 782.445313 641.203125 779.8125 C 640.4375 777.3125 639.996094 775.3125 639.878906 773.8125 C 639.761719 772.308594 640.078125 771.070313 640.832031 770.097656 C 641.582031 769.125 642.90625 768.347656 644.804688 767.769531 Z M 649.144531 774.308594 C 648.6875 772.8125 648.242188 771.839844 647.8125 771.386719 C 647.382813 770.933594 646.71875 770.84375 645.828125 771.113281 C 644.933594 771.386719 644.417969 771.855469 644.28125 772.519531 C 644.140625 773.1875 644.269531 774.164063 644.664063 775.460938 L 646.765625 782.320313 C 647.304688 784.085938 648.296875 784.78125 649.746094 784.410156 C 650.59375 784.152344 651.121094 783.765625 651.328125 783.246094 C 651.539063 782.734375 651.488281 781.972656 651.183594 780.96875 Z M 659.359375 764.019531 L 660.054688 766.148438 C 660.03125 765.25 660.335938 764.445313 660.964844 763.738281 C 661.59375 763.03125 662.339844 762.535156 663.203125 762.257813 C 664.402344 761.867188 665.53125 761.898438 666.585938 762.355469 C 667.640625 762.808594 668.386719 763.699219 668.816406 765.03125 L 673.71875 780.113281 L 669.457031 781.496094 L 665.292969 768.679688 C 664.980469 767.726563 664.621094 767.070313 664.210938 766.714844 C 663.800781 766.355469 663.246094 766.277344 662.554688 766.480469 C 661.933594 766.605469 661.492188 766.996094 661.238281 767.644531 C 660.980469 768.289063 661.015625 769.113281 661.339844 770.109375 L 665.460938 782.792969 L 661.132813 784.199219 L 655.035156 765.425781 L 659.359375 764.019531 "/>
<path style=" stroke:none;fill-rule:nonzero;fill:rgb(0%,52.929688%,39.988708%);fill-opacity:1;" d="M 21.859375 1041.445313 L 21.859375 935.066406 L 0.292969 935.066406 L 0.292969 916.476563 L 63.855469 916.476563 L 63.855469 935.066406 L 42.363281 935.066406 L 42.363281 1041.445313 Z M 73.636719 1041.445313 L 73.636719 916.476563 L 94.136719 916.476563 L 94.136719 968.109375 L 113.621094 968.109375 L 113.621094 916.476563 L 134.121094 916.476563 L 134.121094 1041.445313 L 113.621094 1041.445313 L 113.621094 986.699219 L 94.136719 986.699219 L 94.136719 1041.445313 Z M 149.078125 1041.445313 L 149.078125 916.476563 L 199.089844 916.476563 L 199.089844 935.066406 L 169.582031 935.066406 L 169.582031 968.109375 L 198.09375 968.109375 L 198.09375 986.699219 L 169.582031 986.699219 L 169.582031 1022.851563 L 199.644531 1022.851563 L 199.644531 1041.445313 Z M 243.550781 1041.445313 L 243.550781 916.476563 L 293.558594 916.476563 L 293.558594 935.066406 L 264.054688 935.066406 L 264.054688 968.109375 L 292.566406 968.109375 L 292.566406 986.699219 L 264.054688 986.699219 L 264.054688 1022.851563 L 294.113281 1022.851563 L 294.113281 1041.445313 Z M 306.121094 1041.445313 L 306.121094 916.476563 L 333.058594 916.476563 C 345.9375 916.476563 355.109375 919.648438 360.582031 925.996094 C 366.074219 932.347656 368.8125 942.957031 368.8125 957.832031 L 368.8125 992.835938 C 368.859375 1011.609375 366.464844 1024.394531 361.621094 1031.226563 C 356.757813 1038.027344 347.632813 1041.445313 334.199219 1041.445313 Z M 326.621094 1022.671875 L 332.019531 1022.671875 C 338.433594 1022.671875 342.765625 1021.039063 344.96875 1017.746094 C 347.195313 1014.480469 348.308594 1008.132813 348.308594 998.761719 L 348.308594 957.46875 C 348.308594 949.03125 347.074219 943.230469 344.582031 940.023438 C 342.113281 936.851563 337.5625 935.246094 330.953125 935.246094 L 326.621094 935.246094 Z M 442.78125 1006.378906 C 442.78125 1018.710938 440.214844 1027.960938 435.082031 1034.097656 C 429.953125 1040.234375 422.253906 1043.320313 412.015625 1043.320313 C 401.753906 1043.320313 394.054688 1040.234375 388.925781 1034.097656 C 383.792969 1027.960938 381.226563 1018.710938 381.226563 1006.378906 L 381.226563 916.476563 L 401.511719 916.476563 L 401.511719 1008.070313 C 401.511719 1014.269531 402.285156 1018.589844 403.808594 1021.039063 C 405.359375 1023.488281 408.070313 1024.726563 412.015625 1024.726563 C 415.9375 1024.726563 418.648438 1023.488281 420.195313 1021.039063 C 421.722656 1018.589844 422.496094 1014.269531 422.496094 1008.070313 L 422.496094 916.476563 L 442.78125 916.476563 Z M 516.796875 998.941406 L 516.796875 1002.660156 C 516.992188 1017.320313 514.8125 1027.75 510.285156 1033.976563 C 505.734375 1040.207031 498.0625 1043.320313 487.242188 1043.320313 C 475.746094 1043.320313 467.660156 1039.933594 462.941406 1033.160156 C 458.246094 1026.421875 455.898438 1014.78125 455.898438 998.308594 L 455.898438 959.792969 C 455.898438 943.199219 458.246094 931.5 462.941406 924.757813 C 467.660156 917.988281 475.746094 914.601563 487.242188 914.601563 C 497.214844 914.601563 504.621094 917.777344 509.4375 924.09375 C 513.964844 929.988281 516.21875 938.753906 516.167969 950.394531 L 516.167969 956.5 L 495.8125 956.5 L 495.8125 952.78125 C 495.910156 946.28125 495.230469 941.414063 493.804688 938.210938 C 492.351563 934.976563 490.171875 933.375 487.242188 933.375 C 483.421875 933.375 480.660156 935.21875 478.941406 938.90625 C 477.246094 942.59375 476.398438 948.609375 476.398438 956.953125 L 476.398438 995.496094 C 476.398438 1006.347656 477.199219 1013.90625 478.773438 1018.167969 C 480.34375 1022.429688 483.175781 1024.546875 487.242188 1024.546875 C 490.390625 1024.546875 492.738281 1022.734375 494.289063 1019.105469 C 495.8125 1015.476563 496.539063 1009.976563 496.441406 1002.660156 L 496.441406 998.941406 Z M 523.769531 1041.445313 L 546.472656 916.476563 L 570.507813 916.476563 L 593.113281 1041.445313 L 573.339844 1041.445313 L 569.394531 1014.417969 L 547.65625 1014.417969 L 543.542969 1041.445313 Z M 558.648438 939.84375 L 550.367188 995.828125 L 566.757813 995.828125 L 558.671875 939.84375 Z M 619.714844 1041.445313 L 619.714844 935.066406 L 598.148438 935.066406 L 598.148438 916.476563 L 661.710938 916.476563 L 661.710938 935.066406 L 640.21875 935.066406 L 640.21875 1041.445313 Z M 701.695313 1043.320313 C 690.296875 1043.320313 682.261719 1040.144531 677.589844 1033.765625 C 672.917969 1027.386719 670.570313 1016.414063 670.570313 1000.878906 L 670.570313 949.425781 C 670.570313 937.789063 673.160156 929.082031 678.339844 923.277344 C 683.519531 917.503906 691.289063 914.601563 701.695313 914.601563 C 712.105469 914.601563 719.898438 917.503906 725.101563 923.277344 C 730.308594 929.082031 732.898438 937.789063 732.898438 949.425781 L 732.898438 1000.878906 C 732.898438 1016.414063 730.550781 1027.386719 725.878906 1033.765625 C 721.207031 1040.144531 713.144531 1043.320313 701.695313 1043.320313 Z M 701.695313 1024.546875 C 705.714844 1024.546875 708.496094 1022.882813 710.046875 1019.589844 C 711.621094 1016.265625 712.394531 1010.398438 712.394531 1001.964844 L 712.394531 950.484375 C 712.394531 944.859375 711.476563 940.597656 709.660156 937.726563 C 707.84375 934.824219 705.183594 933.375 701.695313 933.375 C 698.210938 933.375 695.550781 934.824219 693.757813 937.726563 C 691.96875 940.597656 691.070313 944.859375 691.070313 950.484375 L 691.070313 1001.964844 C 691.070313 1010.398438 691.84375 1016.265625 693.417969 1019.589844 C 694.96875 1022.882813 697.726563 1024.546875 701.695313 1024.546875 Z M 745.871094 1041.445313 L 745.871094 916.476563 L 775.933594 916.476563 C 786.679688 916.476563 794.328125 918.953125 798.925781 923.910156 C 803.503906 928.871094 805.800781 937.214844 805.800781 948.910156 C 805.800781 962.121094 803.476563 971.039063 798.855469 975.664063 C 796.53125 977.964844 792.972656 979.746094 788.15625 981.046875 L 789.269531 981.046875 C 794.859375 981.046875 799.070313 983.34375 801.929688 987.90625 C 804.785156 992.503906 806.066406 999.03125 805.730469 1007.527344 C 805.585938 1012.363281 805.535156 1017.414063 805.585938 1022.671875 C 805.679688 1028.113281 805.824219 1032.226563 806.019531 1035.035156 C 806.214844 1037.816406 806.480469 1039.933594 806.867188 1041.355469 L 786.4375 1041.355469 C 786.097656 1039.992188 785.882813 1037.9375 785.734375 1035.15625 C 785.589844 1032.375 785.519531 1028.234375 785.519531 1022.671875 L 785.519531 1007.527344 C 785.613281 1001.269531 784.671875 996.855469 782.6875 994.285156 C 780.699219 991.71875 777.238281 990.449219 772.324219 990.449219 L 766.371094 990.449219 L 766.371094 1041.445313 Z M 766.371094 971.3125 L 772.035156 971.3125 C 777.335938 971.3125 780.871094 970.074219 782.636719 967.625 C 784.402344 965.175781 785.300781 960.308594 785.300781 952.964844 C 785.300781 946.132813 784.355469 941.445313 782.492188 938.96875 C 780.628906 936.488281 777.144531 935.246094 772.035156 935.246094 L 766.371094 935.246094 Z M 856.316406 955.167969 L 856.316406 951.453125 C 856.390625 944.832031 855.734375 940.175781 854.332031 937.453125 C 852.902344 934.734375 850.433594 933.375 846.878906 933.375 C 843.390625 933.375 840.753906 934.644531 839.011719 937.152344 C 837.265625 939.660156 836.394531 943.410156 836.394531 948.429688 C 836.394531 952.328125 837.4375 955.683594 839.519531 958.464844 C 841.550781 961.214844 845.132813 964.117188 850.289063 967.140625 C 860.453125 973.15625 867.570313 979.019531 871.613281 984.765625 C 875.703125 990.476563 877.738281 997.519531 877.738281 1005.835938 C 877.738281 1018.378906 875.121094 1027.75 869.894531 1033.976563 C 864.691406 1040.207031 856.824219 1043.320313 846.34375 1043.320313 C 834.917969 1043.320313 826.8125 1040.539063 822.066406 1034.945313 C 817.320313 1029.382813 814.949219 1020.253906 814.949219 1007.617188 L 814.949219 1002.75 L 835.160156 1002.75 L 835.160156 1006.46875 C 835.0625 1012.484375 835.960938 1017.019531 837.824219 1020.042969 C 839.6875 1023.035156 842.519531 1024.546875 846.34375 1024.546875 C 850.070313 1024.546875 852.855469 1023.1875 854.695313 1020.464844 C 856.535156 1017.746094 857.453125 1013.632813 857.453125 1008.160156 C 857.453125 1004.082031 856.339844 1000.574219 854.089844 997.613281 C 851.863281 994.648438 847.964844 991.535156 842.375 988.210938 C 832.644531 982.496094 825.816406 976.84375 821.945313 971.3125 C 818.046875 965.808594 816.113281 958.976563 816.113281 950.847656 C 816.113281 938.726563 818.726563 929.65625 823.953125 923.640625 C 829.160156 917.625 837.023438 914.601563 847.503906 914.601563 C 858.277344 914.601563 865.902344 917.414063 870.332031 923.003906 C 874.492188 928.324219 876.550781 936.882813 876.503906 948.699219 L 876.527344 951.453125 L 876.527344 955.167969 L 856.316406 955.167969 "/>
<path style=" stroke:none;fill-rule:evenodd;fill:rgb(100%,100%,100%);fill-opacity:1;" d="M 187.386719 3.910156 L 690.648438 3.910156 L 690.648438 539.753906 C 629.460938 638.996094 547.195313 709.378906 441.863281 750.507813 C 345.421875 714.503906 256.636719 645.605469 187.386719 539.753906 L 187.386719 3.910156 "/>
<path style="fill:none;stroke-width:60.0009;stroke-linecap:butt;stroke-linejoin:miter;stroke:rgb(0%,52.929688%,39.988708%);stroke-opacity:1;stroke-miterlimit:2.61313;" d="M 1873.867188 10400.898438 L 6906.484375 10400.898438 L 6906.484375 5042.460938 C 6294.609375 4050.039063 5471.953125 3346.210938 4418.632813 2934.921875 C 3454.21875 3294.960938 2566.367188 3983.945313 1873.867188 5042.460938 Z M 1873.867188 10400.898438 " transform="matrix(0.1,0,0,-0.1,0,1044)"/>
<path style=" stroke:none;fill-rule:nonzero;fill:rgb(0%,52.929688%,39.988708%);fill-opacity:1;" d="M 237.097656 573.832031 C 260.578125 603 285.789063 628.519531 312.355469 650.519531 C 352.832031 684.039063 396.386719 709.40625 441.6875 727.082031 C 490.035156 707.484375 533.246094 681.40625 571.53125 648.898438 C 610.335938 615.945313 644.132813 576.355469 673.148438 530.179688 L 673.148438 311.910156 C 529.710938 284.371094 430.28125 323.835938 346.949219 356.921875 C 295.871094 377.195313 250.753906 395.105469 204.886719 394.195313 L 204.886719 529.835938 C 213.136719 542.226563 227.957031 561.972656 237.15625 573.820313 L 237.097656 573.832031 "/>
<g clip-path="url(#clip1)" clip-rule="nonzero">
<g clip-path="url(#clip2)" clip-rule="nonzero">
<path style="fill:none;stroke-width:60.0009;stroke-linecap:butt;stroke-linejoin:miter;stroke:rgb(100%,100%,100%);stroke-opacity:1;stroke-miterlimit:2.61313;" d="M 2018.320313 6418.203125 C 2462.1875 6409.0625 2943.125 6591.523438 3446.25 6791.25 C 4286.601563 7124.882813 5307.03125 7522.695313 6755.898438 7248.4375 " transform="matrix(0.1,0,0,-0.1,0,1044)"/>
</g>
</g>
<g clip-path="url(#clip3)" clip-rule="nonzero">
<g clip-path="url(#clip4)" clip-rule="nonzero">
<path style="fill:none;stroke-width:60.0009;stroke-linecap:butt;stroke-linejoin:miter;stroke:rgb(100%,100%,100%);stroke-opacity:1;stroke-miterlimit:2.61313;" d="M 1885.46875 5575.039063 C 2508.398438 5554.296875 2943.125 5736.445313 3446.25 5936.171875 C 4286.601563 6269.804688 5544.140625 6730.78125 7016.132813 6341.054688 " transform="matrix(0.1,0,0,-0.1,0,1044)"/>
</g>
</g>
<g clip-path="url(#clip5)" clip-rule="nonzero">
<g clip-path="url(#clip6)" clip-rule="nonzero">
<path style="fill:none;stroke-width:60.0009;stroke-linecap:butt;stroke-linejoin:miter;stroke:rgb(100%,100%,100%);stroke-opacity:1;stroke-miterlimit:2.61313;" d="M 1858.59375 4695.507813 C 2394.882813 4634.375 2943.125 4856.914063 3446.25 5056.640625 C 4286.601563 5390.273438 5573.046875 5817.304688 7056.5625 5473.710938 " transform="matrix(0.1,0,0,-0.1,0,1044)"/>
</g>
</g>
<g clip-path="url(#clip7)" clip-rule="nonzero">
<g clip-path="url(#clip8)" clip-rule="nonzero">
<path style=" stroke:none;fill-rule:evenodd;fill:rgb(100%,100%,100%);fill-opacity:1;" d="M 397.007813 443.886719 C 392.308594 344.578125 426.421875 319.851563 523.285156 317.683594 C 530.363281 317.664063 531.0625 322.789063 525.335938 325.738281 C 500.71875 343.023438 494.195313 371.316406 504.132813 414.222656 L 397.007813 443.886719 "/>
</g>
</g>
<g clip-path="url(#clip9)" clip-rule="nonzero">
<g clip-path="url(#clip10)" clip-rule="nonzero">
<path style="fill:none;stroke-width:60.0009;stroke-linecap:butt;stroke-linejoin:miter;stroke:rgb(0%,52.929688%,39.988708%);stroke-opacity:1;stroke-miterlimit:2.61313;" d="M 3970.078125 6001.132813 C 3923.085938 6994.21875 4264.21875 7241.484375 5232.851563 7263.164063 C 5303.632813 7263.359375 5310.625 7212.109375 5253.359375 7182.617188 C 5007.1875 7009.765625 4941.953125 6726.835938 5041.328125 6297.773438 Z M 3970.078125 6001.132813 " transform="matrix(0.1,0,0,-0.1,0,1044)"/>
</g>
</g>
<g clip-path="url(#clip11)" clip-rule="nonzero">
<g clip-path="url(#clip12)" clip-rule="nonzero">
<path style=" stroke:none;fill-rule:evenodd;fill:rgb(100%,100%,100%);fill-opacity:1;" d="M 354.78125 551.464844 C 340.671875 494.613281 350.859375 450.542969 402.113281 426.375 L 536.921875 391.722656 C 544.433594 389.835938 546.980469 395.796875 543.261719 399.75 C 515.046875 431.933594 530.171875 471.664063 548.332031 505.402344 L 354.78125 551.464844 "/>
</g>
</g>
<g clip-path="url(#clip13)" clip-rule="nonzero">
<g clip-path="url(#clip14)" clip-rule="nonzero">
<path style="fill:none;stroke-width:60.0009;stroke-linecap:butt;stroke-linejoin:miter;stroke:rgb(0%,52.929688%,39.988708%);stroke-opacity:1;stroke-miterlimit:2.61313;" d="M 3547.8125 4925.351563 C 3406.71875 5493.867188 3508.59375 5934.570313 4021.132813 6176.25 L 5369.21875 6522.773438 C 5444.335938 6541.640625 5469.804688 6482.03125 5432.617188 6442.5 C 5150.46875 6120.664063 5301.71875 5723.359375 5483.320313 5385.976563 Z M 3547.8125 4925.351563 " transform="matrix(0.1,0,0,-0.1,0,1044)"/>
</g>
</g>
<g clip-path="url(#clip15)" clip-rule="nonzero">
<g clip-path="url(#clip16)" clip-rule="nonzero">
<path style=" stroke:none;fill-rule:evenodd;fill:rgb(100%,100%,100%);fill-opacity:1;" d="M 325.660156 670.394531 C 311.265625 596.191406 311.480469 542.164063 356.757813 533.453125 C 430.902344 501.738281 503.210938 486.601563 574.445313 481.074219 C 583.753906 480.101563 587.171875 486.332031 580.449219 493.078125 C 551.644531 526.425781 565.222656 588.121094 589.722656 650.753906 L 450.054688 754.414063 L 325.660156 670.394531 "/>
</g>
</g>
<g clip-path="url(#clip17)" clip-rule="nonzero">
<g clip-path="url(#clip18)" clip-rule="nonzero">
<path style="fill:none;stroke-width:60.0009;stroke-linecap:butt;stroke-linejoin:miter;stroke:rgb(0%,52.929688%,39.988708%);stroke-opacity:1;stroke-miterlimit:2.61313;" d="M 3256.601563 3736.054688 C 3112.65625 4478.085938 3114.804688 5018.359375 3567.578125 5105.46875 C 4309.023438 5422.617188 5032.109375 5573.984375 5744.453125 5629.257813 C 5837.539063 5638.984375 5871.71875 5576.679688 5804.492188 5509.21875 C 5516.445313 5175.742188 5652.226563 4558.789063 5897.226563 3932.460938 L 4500.546875 2895.859375 Z M 3256.601563 3736.054688 " transform="matrix(0.1,0,0,-0.1,0,1044)"/>
</g>
</g>
<path style=" stroke:none;fill-rule:evenodd;fill:rgb(0%,52.929688%,39.988708%);fill-opacity:1;" d="M 187.386719 3.910156 L 690.648438 3.910156 L 690.648438 99.25 L 187.386719 99.25 L 187.386719 3.910156 "/>
<path style=" stroke:none;fill-rule:nonzero;fill:rgb(0%,21.972656%,56.834412%);fill-opacity:1;" d="M 204.886719 111.777344 L 204.886719 399.121094 C 249.273438 400.039063 293.703125 382.402344 344.011719 362.429688 C 428.050781 329.066406 528.261719 289.289063 673.148438 316.714844 L 673.148438 111.777344 L 204.886719 111.777344 "/>
<g clip-path="url(#clip19)" clip-rule="nonzero">
<g clip-path="url(#clip20)" clip-rule="nonzero">
<path style=" stroke:none;fill-rule:evenodd;fill:rgb(100%,94.898987%,0%);fill-opacity:1;" d="M 439.015625 208.996094 C 498.59375 208.996094 546.886719 257.289063 546.886719 316.867188 C 546.886719 376.441406 498.59375 424.738281 439.015625 424.738281 C 379.441406 424.738281 331.144531 376.441406 331.144531 316.867188 C 331.144531 257.289063 379.441406 208.996094 439.015625 208.996094 "/>
</g>
</g>
<g clip-path="url(#clip21)" clip-rule="nonzero">
<g clip-path="url(#clip22)" clip-rule="nonzero">
<path style="fill:none;stroke-width:5.0003;stroke-linecap:butt;stroke-linejoin:miter;stroke:rgb(100%,94.898987%,0%);stroke-opacity:1;stroke-miterlimit:2.61313;" d="M 4390.15625 8350.039063 C 4985.9375 8350.039063 5468.867188 7867.109375 5468.867188 7271.328125 C 5468.867188 6675.585938 4985.9375 6192.617188 4390.15625 6192.617188 C 3794.414063 6192.617188 3311.445313 6675.585938 3311.445313 7271.328125 C 3311.445313 7867.109375 3794.414063 8350.039063 4390.15625 8350.039063 Z M 4390.15625 8350.039063 " transform="matrix(0.1,0,0,-0.1,0,1044)"/>
</g>
</g>
<g clip-path="url(#clip23)" clip-rule="nonzero">
<g clip-path="url(#clip24)" clip-rule="nonzero">
<path style=" stroke:none;fill-rule:evenodd;fill:rgb(100%,94.898987%,0%);fill-opacity:1;" d="M 430.359375 37.199219 L 447.671875 37.199219 L 447.671875 519.292969 L 430.359375 519.292969 L 430.359375 37.199219 "/>
<path style="fill:none;stroke-width:5.0003;stroke-linecap:butt;stroke-linejoin:miter;stroke:rgb(100%,94.898987%,0%);stroke-opacity:1;stroke-miterlimit:2.61313;" d="M 4303.59375 10068.007813 L 4476.71875 10068.007813 L 4476.71875 5247.070313 L 4303.59375 5247.070313 Z M 4303.59375 10068.007813 " transform="matrix(0.1,0,0,-0.1,0,1044)"/>
</g>
</g>
<g clip-path="url(#clip25)" clip-rule="nonzero">
<g clip-path="url(#clip26)" clip-rule="nonzero">
<path style=" stroke:none;fill-rule:evenodd;fill:rgb(100%,94.898987%,0%);fill-opacity:1;" d="M 170.476563 109.570313 L 181.257813 96.027344 L 558.402344 396.316406 L 547.617188 409.859375 L 170.476563 109.570313 "/>
</g>
</g>
<g clip-path="url(#clip27)" clip-rule="nonzero">
<g clip-path="url(#clip28)" clip-rule="nonzero">
<path style="fill:none;stroke-width:5.0003;stroke-linecap:butt;stroke-linejoin:miter;stroke:rgb(100%,94.898987%,0%);stroke-opacity:1;stroke-miterlimit:2.61313;" d="M 1704.765625 9344.296875 L 1812.578125 9479.726563 L 5584.023438 6476.835938 L 5476.171875 6341.40625 Z M 1704.765625 9344.296875 " transform="matrix(0.1,0,0,-0.1,0,1044)"/>
</g>
</g>
<g clip-path="url(#clip29)" clip-rule="nonzero">
<g clip-path="url(#clip30)" clip-rule="nonzero">
<path style=" stroke:none;fill-rule:evenodd;fill:rgb(100%,94.898987%,0%);fill-opacity:1;" d="M 712.882813 109.570313 L 702.101563 96.027344 L 324.957031 396.316406 L 335.742188 409.859375 L 712.882813 109.570313 "/>
</g>
</g>
<g clip-path="url(#clip31)" clip-rule="nonzero">
<g clip-path="url(#clip32)" clip-rule="nonzero">
<path style="fill:none;stroke-width:5.0003;stroke-linecap:butt;stroke-linejoin:miter;stroke:rgb(100%,94.898987%,0%);stroke-opacity:1;stroke-miterlimit:2.61313;" d="M 7128.828125 9344.296875 L 7021.015625 9479.726563 L 3249.570313 6476.835938 L 3357.421875 6341.40625 Z M 7128.828125 9344.296875 " transform="matrix(0.1,0,0,-0.1,0,1044)"/>
</g>
</g>
<g clip-path="url(#clip33)" clip-rule="nonzero">
<g clip-path="url(#clip34)" clip-rule="nonzero">
<path style=" stroke:none;fill-rule:evenodd;fill:rgb(100%,94.898987%,0%);fill-opacity:1;" d="M 165.125 261.996094 L 169.097656 245.148438 L 638.328125 355.753906 L 634.355469 372.605469 L 165.125 261.996094 "/>
</g>
</g>
<g clip-path="url(#clip35)" clip-rule="nonzero">
<g clip-path="url(#clip36)" clip-rule="nonzero">
<path style="fill:none;stroke-width:5.0003;stroke-linecap:butt;stroke-linejoin:miter;stroke:rgb(100%,94.898987%,0%);stroke-opacity:1;stroke-miterlimit:2.61313;" d="M 1651.25 7820.039063 L 1690.976563 7988.515625 L 6383.28125 6882.460938 L 6343.554688 6713.945313 Z M 1651.25 7820.039063 " transform="matrix(0.1,0,0,-0.1,0,1044)"/>
</g>
</g>
<g clip-path="url(#clip37)" clip-rule="nonzero">
<g clip-path="url(#clip38)" clip-rule="nonzero">
<path style=" stroke:none;fill-rule:evenodd;fill:rgb(100%,94.898987%,0%);fill-opacity:1;" d="M 716.902344 260.667969 L 712.929688 243.816406 L 179.773438 367.738281 L 183.746094 384.589844 L 716.902344 260.667969 "/>
</g>
</g>
<g clip-path="url(#clip39)" clip-rule="nonzero">
<g clip-path="url(#clip40)" clip-rule="nonzero">
<path style="fill:none;stroke-width:5.0003;stroke-linecap:butt;stroke-linejoin:miter;stroke:rgb(100%,94.898987%,0%);stroke-opacity:1;stroke-miterlimit:2.61313;" d="M 7169.023438 7833.320313 L 7129.296875 8001.835938 L 1797.734375 6762.617188 L 1837.460938 6594.101563 Z M 7169.023438 7833.320313 " transform="matrix(0.1,0,0,-0.1,0,1044)"/>
</g>
</g>
<g clip-path="url(#clip41)" clip-rule="nonzero">
<g clip-path="url(#clip42)" clip-rule="nonzero">
<path style="fill:none;stroke-width:79.9994;stroke-linecap:butt;stroke-linejoin:miter;stroke:rgb(100%,94.898987%,0%);stroke-opacity:1;stroke-miterlimit:2.61313;" d="M 4055.976563 8802.8125 L 4681.875 5966.210938 " transform="matrix(0.1,0,0,-0.1,0,1044)"/>
</g>
</g>
<g clip-path="url(#clip43)" clip-rule="nonzero">
<g clip-path="url(#clip44)" clip-rule="nonzero">
<path style="fill:none;stroke-width:79.9994;stroke-linecap:butt;stroke-linejoin:miter;stroke:rgb(100%,94.898987%,0%);stroke-opacity:1;stroke-miterlimit:2.61313;" d="M 3418.28125 8482.617188 L 5319.609375 6286.445313 " transform="matrix(0.1,0,0,-0.1,0,1044)"/>
</g>
</g>
<g clip-path="url(#clip45)" clip-rule="nonzero">
<g clip-path="url(#clip46)" clip-rule="nonzero">
<path style="fill:none;stroke-width:79.9994;stroke-linecap:butt;stroke-linejoin:miter;stroke:rgb(100%,94.898987%,0%);stroke-opacity:1;stroke-miterlimit:2.61313;" d="M 3010.039063 7923.945313 L 5727.8125 6871.757813 " transform="matrix(0.1,0,0,-0.1,0,1044)"/>
</g>
</g>
<g clip-path="url(#clip47)" clip-rule="nonzero">
<g clip-path="url(#clip48)" clip-rule="nonzero">
<path style="fill:none;stroke-width:79.9994;stroke-linecap:butt;stroke-linejoin:miter;stroke:rgb(100%,94.898987%,0%);stroke-opacity:1;stroke-miterlimit:2.61313;" d="M 2876.5625 7268.125 L 5941.210938 7301.132813 " transform="matrix(0.1,0,0,-0.1,0,1044)"/>
</g>
</g>
<g clip-path="url(#clip49)" clip-rule="nonzero">
<g clip-path="url(#clip50)" clip-rule="nonzero">
<path style="fill:none;stroke-width:79.9994;stroke-linecap:butt;stroke-linejoin:miter;stroke:rgb(100%,94.898987%,0%);stroke-opacity:1;stroke-miterlimit:2.61313;" d="M 3014.492188 6625.078125 L 5816.601563 7944.21875 " transform="matrix(0.1,0,0,-0.1,0,1044)"/>
</g>
</g>
<g clip-path="url(#clip51)" clip-rule="nonzero">
<g clip-path="url(#clip52)" clip-rule="nonzero">
<path style="fill:none;stroke-width:79.9994;stroke-linecap:butt;stroke-linejoin:miter;stroke:rgb(100%,94.898987%,0%);stroke-opacity:1;stroke-miterlimit:2.61313;" d="M 4731.328125 8791.015625 L 4006.523438 5978.046875 " transform="matrix(0.1,0,0,-0.1,0,1044)"/>
</g>
</g>
<g clip-path="url(#clip53)" clip-rule="nonzero">
<g clip-path="url(#clip54)" clip-rule="nonzero">
<path style="fill:none;stroke-width:79.9994;stroke-linecap:butt;stroke-linejoin:miter;stroke:rgb(100%,94.898987%,0%);stroke-opacity:1;stroke-miterlimit:2.61313;" d="M 5328.320313 8475 L 3409.53125 6294.0625 " transform="matrix(0.1,0,0,-0.1,0,1044)"/>
</g>
</g>
<g clip-path="url(#clip55)" clip-rule="nonzero">
<g clip-path="url(#clip56)" clip-rule="nonzero">
<path style=" stroke:none;fill-rule:evenodd;fill:rgb(100%,94.898987%,0%);fill-opacity:1;" d="M 291.449219 42.148438 L 306.78125 34.109375 L 530.648438 461.070313 L 515.316406 469.109375 L 291.449219 42.148438 "/>
</g>
</g>
<g clip-path="url(#clip57)" clip-rule="nonzero">
<g clip-path="url(#clip58)" clip-rule="nonzero">
<path style="fill:none;stroke-width:5.0003;stroke-linecap:butt;stroke-linejoin:miter;stroke:rgb(100%,94.898987%,0%);stroke-opacity:1;stroke-miterlimit:2.61313;" d="M 2914.492188 10018.515625 L 3067.8125 10098.90625 L 5306.484375 5829.296875 L 5153.164063 5748.90625 Z M 2914.492188 10018.515625 " transform="matrix(0.1,0,0,-0.1,0,1044)"/>
</g>
</g>
<g clip-path="url(#clip59)" clip-rule="nonzero">
<g clip-path="url(#clip60)" clip-rule="nonzero">
<path style=" stroke:none;fill-rule:evenodd;fill:rgb(100%,94.898987%,0%);fill-opacity:1;" d="M 587.914063 42.148438 L 572.582031 34.109375 L 348.714844 461.070313 L 364.046875 469.109375 L 587.914063 42.148438 "/>
</g>
</g>
<g clip-path="url(#clip61)" clip-rule="nonzero">
<g clip-path="url(#clip62)" clip-rule="nonzero">
<path style="fill:none;stroke-width:5.0003;stroke-linecap:butt;stroke-linejoin:miter;stroke:rgb(100%,94.898987%,0%);stroke-opacity:1;stroke-miterlimit:2.61313;" d="M 5879.140625 10018.515625 L 5725.820313 10098.90625 L 3487.148438 5829.296875 L 3640.46875 5748.90625 Z M 5879.140625 10018.515625 " transform="matrix(0.1,0,0,-0.1,0,1044)"/>
</g>
</g>
<path style=" stroke:none;fill-rule:nonzero;fill:rgb(0%,52.929688%,39.988708%);fill-opacity:1;" d="M 325.074219 653.257813 C 345.199219 669.925781 363.324219 683.21875 382.03125 694.527344 C 400.421875 705.648438 419.394531 714.867188 441.398438 723.511719 C 470.929688 711.476563 494.449219 699.179688 516.3125 684.648438 C 538.503906 669.902344 559.019531 652.851563 582.382813 631.445313 L 586.414063 635.851563 C 562.789063 657.496094 542.050781 674.734375 519.617188 689.640625 C 497.132813 704.585938 472.96875 717.183594 442.546875 729.515625 L 440.332031 729.527344 C 417.515625 720.621094 397.921875 711.140625 378.9375 699.660156 C 359.960938 688.1875 341.601563 674.730469 321.253906 657.875 L 325.074219 653.257813 "/>
<path style=" stroke:none;fill-rule:nonzero;fill:rgb(100%,100%,100%);fill-opacity:1;" d="M 213.113281 86.632813 L 213.113281 26.960938 L 201.246094 26.960938 L 201.246094 16.53125 L 236.21875 16.53125 L 236.21875 26.960938 L 224.394531 26.960938 L 224.394531 86.632813 L 213.113281 86.632813 "/>
<path style=" stroke:none;fill-rule:nonzero;fill:rgb(100%,100%,100%);fill-opacity:1;" d="M 241.601563 86.632813 L 241.601563 16.53125 L 252.878906 16.53125 L 252.878906 45.492188 L 263.601563 45.492188 L 263.601563 16.53125 L 274.882813 16.53125 L 274.882813 86.632813 L 263.601563 86.632813 L 263.601563 55.921875 L 252.878906 55.921875 L 252.878906 86.632813 L 241.601563 86.632813 "/>
<path style=" stroke:none;fill-rule:nonzero;fill:rgb(100%,100%,100%);fill-opacity:1;" d="M 283.109375 86.632813 L 283.109375 16.53125 L 310.625 16.53125 L 310.625 26.960938 L 294.390625 26.960938 L 294.390625 45.492188 L 310.078125 45.492188 L 310.078125 55.921875 L 294.390625 55.921875 L 294.390625 76.203125 L 310.933594 76.203125 L 310.933594 86.632813 L 283.109375 86.632813 "/>
<path style=" stroke:none;fill-rule:nonzero;fill:rgb(100%,100%,100%);fill-opacity:1;" d="M 335.089844 86.632813 L 335.089844 16.53125 L 362.605469 16.53125 L 362.605469 26.960938 L 346.371094 26.960938 L 346.371094 45.492188 L 362.058594 45.492188 L 362.058594 55.921875 L 346.371094 55.921875 L 346.371094 76.203125 L 362.910156 76.203125 L 362.910156 86.632813 L 335.089844 86.632813 "/>
<path style=" stroke:none;fill-rule:nonzero;fill:rgb(100%,100%,100%);fill-opacity:1;" d="M 369.515625 86.632813 L 369.515625 16.53125 L 384.339844 16.53125 C 391.425781 16.53125 396.472656 18.308594 399.480469 21.871094 C 402.507813 25.429688 404.011719 31.378906 404.011719 39.730469 L 404.011719 59.363281 C 404.035156 69.894531 402.71875 77.070313 400.054688 80.902344 C 397.378906 84.71875 392.355469 86.632813 384.964844 86.632813 Z M 380.796875 76.101563 L 383.769531 76.101563 C 387.296875 76.101563 389.679688 75.1875 390.894531 73.339844 C 392.117188 71.507813 392.730469 67.945313 392.730469 62.6875 L 392.730469 39.519531 C 392.730469 34.789063 392.050781 31.53125 390.679688 29.738281 C 389.320313 27.960938 386.816406 27.058594 383.183594 27.058594 L 380.796875 27.058594 L 380.796875 76.101563 "/>
<path style=" stroke:none;fill-rule:nonzero;fill:rgb(100%,100%,100%);fill-opacity:1;" d="M 444.710938 66.960938 C 444.710938 73.882813 443.296875 79.070313 440.476563 82.511719 C 437.652344 85.953125 433.414063 87.683594 427.78125 87.683594 C 422.136719 87.683594 417.902344 85.953125 415.078125 82.511719 C 412.253906 79.070313 410.84375 73.882813 410.84375 66.960938 L 410.84375 16.53125 L 422.003906 16.53125 L 422.003906 67.910156 C 422.003906 71.386719 422.429688 73.8125 423.269531 75.1875 C 424.121094 76.5625 425.613281 77.257813 427.78125 77.257813 C 429.941406 77.257813 431.433594 76.5625 432.285156 75.1875 C 433.121094 73.8125 433.550781 71.386719 433.550781 67.910156 L 433.550781 16.53125 L 444.710938 16.53125 L 444.710938 66.960938 "/>
<path style=" stroke:none;fill-rule:nonzero;fill:rgb(100%,100%,100%);fill-opacity:1;" d="M 485.433594 62.789063 L 485.433594 64.875 C 485.542969 73.101563 484.34375 78.953125 481.851563 82.445313 C 479.347656 85.9375 475.128906 87.683594 469.175781 87.683594 C 462.847656 87.683594 458.398438 85.785156 455.804688 81.988281 C 453.21875 78.203125 451.929688 71.675781 451.929688 62.433594 L 451.929688 40.828125 C 451.929688 31.519531 453.21875 24.949219 455.804688 21.171875 C 458.398438 17.371094 462.847656 15.46875 469.175781 15.46875 C 474.660156 15.46875 478.738281 17.261719 481.386719 20.800781 C 483.878906 24.109375 485.117188 29.019531 485.089844 35.550781 L 485.089844 38.980469 L 473.890625 38.980469 L 473.890625 36.890625 C 473.941406 33.25 473.570313 30.519531 472.78125 28.71875 C 471.984375 26.910156 470.785156 26.011719 469.175781 26.011719 C 467.070313 26.011719 465.550781 27.039063 464.605469 29.109375 C 463.675781 31.179688 463.207031 34.550781 463.207031 39.230469 L 463.207031 60.855469 C 463.207031 66.945313 463.648438 71.183594 464.511719 73.574219 C 465.378906 75.96875 466.9375 77.152344 469.175781 77.152344 C 470.90625 77.152344 472.195313 76.136719 473.050781 74.101563 C 473.890625 72.066406 474.289063 68.980469 474.234375 64.875 L 474.234375 62.789063 L 485.433594 62.789063 "/>
<path style=" stroke:none;fill-rule:nonzero;fill:rgb(100%,100%,100%);fill-opacity:1;" d="M 489.269531 86.632813 L 501.761719 16.53125 L 514.988281 16.53125 L 527.425781 86.632813 L 516.546875 86.632813 L 514.375 71.472656 L 502.414063 71.472656 L 500.152344 86.632813 Z M 508.460938 29.640625 L 503.90625 61.042969 L 512.921875 61.042969 L 508.476563 29.640625 L 508.460938 29.640625 "/>
<path style=" stroke:none;fill-rule:nonzero;fill:rgb(100%,100%,100%);fill-opacity:1;" d="M 537.269531 85.617188 L 537.269531 25.941406 L 525.402344 25.941406 L 525.402344 15.511719 L 560.375 15.511719 L 560.375 25.941406 L 548.546875 25.941406 L 548.546875 85.617188 L 537.269531 85.617188 "/>
<path style=" stroke:none;fill-rule:nonzero;fill:rgb(100%,100%,100%);fill-opacity:1;" d="M 582.375 86.667969 C 576.101563 86.667969 571.679688 84.886719 569.109375 81.308594 C 566.539063 77.730469 565.246094 71.574219 565.246094 62.859375 L 565.246094 33.988281 C 565.246094 27.460938 566.671875 22.578125 569.523438 19.320313 C 572.371094 16.089844 576.648438 14.460938 582.375 14.460938 C 588.101563 14.460938 592.390625 16.089844 595.253906 19.320313 C 598.117188 22.578125 599.542969 27.460938 599.542969 33.988281 L 599.542969 62.859375 C 599.542969 71.574219 598.25 77.730469 595.679688 81.308594 C 593.109375 84.886719 588.675781 86.667969 582.375 86.667969 Z M 582.375 76.136719 C 584.585938 76.136719 586.117188 75.203125 586.96875 73.355469 C 587.835938 71.488281 588.261719 68.199219 588.261719 63.46875 L 588.261719 34.589844 C 588.261719 31.429688 587.757813 29.039063 586.757813 27.429688 C 585.757813 25.800781 584.292969 24.988281 582.375 24.988281 C 580.457031 24.988281 578.992188 25.800781 578.007813 27.429688 C 577.019531 29.039063 576.527344 31.429688 576.527344 34.589844 L 576.527344 63.46875 C 576.527344 68.199219 576.953125 71.488281 577.820313 73.355469 C 578.671875 75.203125 580.191406 76.136719 582.375 76.136719 "/>
<path style=" stroke:none;fill-rule:nonzero;fill:rgb(100%,100%,100%);fill-opacity:1;" d="M 606.679688 85.617188 L 606.679688 15.511719 L 623.222656 15.511719 C 629.132813 15.511719 633.34375 16.898438 635.871094 19.679688 C 638.390625 22.460938 639.65625 27.140625 639.65625 33.710938 C 639.65625 41.121094 638.378906 46.121094 635.832031 48.714844 C 634.554688 50.003906 632.597656 51.003906 629.945313 51.730469 L 630.558594 51.730469 C 633.636719 51.730469 635.953125 53.019531 637.523438 55.582031 C 639.097656 58.160156 639.800781 61.824219 639.613281 66.589844 C 639.535156 69.300781 639.507813 72.132813 639.535156 75.085938 C 639.589844 78.136719 639.667969 80.445313 639.773438 82.019531 C 639.882813 83.582031 640.027344 84.769531 640.242188 85.566406 L 629 85.566406 C 628.8125 84.800781 628.695313 83.648438 628.613281 82.089844 C 628.535156 80.527344 628.496094 78.203125 628.496094 75.085938 L 628.496094 66.589844 C 628.546875 63.078125 628.027344 60.601563 626.9375 59.160156 C 625.84375 57.71875 623.941406 57.007813 621.234375 57.007813 L 617.960938 57.007813 L 617.960938 85.617188 Z M 617.960938 46.273438 L 621.078125 46.273438 C 623.992188 46.273438 625.9375 45.578125 626.910156 44.203125 C 627.882813 42.828125 628.375 40.101563 628.375 35.980469 C 628.375 32.148438 627.855469 29.519531 626.828125 28.128906 C 625.804688 26.738281 623.886719 26.039063 621.078125 26.039063 L 617.960938 26.039063 L 617.960938 46.273438 "/>
<path style=" stroke:none;fill-rule:nonzero;fill:rgb(100%,100%,100%);fill-opacity:1;" d="M 667.449219 37.21875 L 667.449219 35.128906 C 667.488281 31.421875 667.128906 28.800781 666.355469 27.28125 C 665.570313 25.75 664.214844 24.988281 662.253906 24.988281 C 660.339844 24.988281 658.886719 25.699219 657.925781 27.109375 C 656.96875 28.519531 656.488281 30.621094 656.488281 33.429688 C 656.488281 35.621094 657.0625 37.5 658.207031 39.058594 C 659.324219 40.609375 661.296875 42.238281 664.132813 43.929688 C 669.726563 47.308594 673.640625 50.597656 675.867188 53.820313 C 678.117188 57.023438 679.234375 60.976563 679.234375 65.640625 C 679.234375 72.675781 677.796875 77.933594 674.921875 81.425781 C 672.058594 84.921875 667.730469 86.667969 661.960938 86.667969 C 655.675781 86.667969 651.214844 85.105469 648.605469 81.96875 C 645.992188 78.851563 644.6875 73.726563 644.6875 66.640625 L 644.6875 63.910156 L 655.808594 63.910156 L 655.808594 65.996094 C 655.757813 69.371094 656.25 71.914063 657.273438 73.609375 C 658.300781 75.289063 659.859375 76.136719 661.960938 76.136719 C 664.011719 76.136719 665.546875 75.371094 666.558594 73.847656 C 667.570313 72.320313 668.074219 70.015625 668.074219 66.945313 C 668.074219 64.65625 667.464844 62.6875 666.222656 61.027344 C 664.996094 59.363281 662.855469 57.617188 659.777344 55.753906 C 654.425781 52.546875 650.667969 49.375 648.539063 46.273438 C 646.394531 43.191406 645.328125 39.351563 645.328125 34.789063 C 645.328125 27.988281 646.765625 22.898438 649.644531 19.53125 C 652.507813 16.148438 656.835938 14.460938 662.601563 14.460938 C 668.527344 14.460938 672.722656 16.03125 675.160156 19.171875 C 677.449219 22.160156 678.582031 26.960938 678.554688 33.589844 L 678.570313 35.128906 L 678.570313 37.21875 L 667.449219 37.21875 "/>
</g>
</svg>
